<?xml version="1.0" encoding="UTF-8" standalone="no" ?>
<!DOCTYPE svg PUBLIC "-//W3C//DTD SVG 1.1//EN" "http://www.w3.org/Graphics/SVG/1.1/DTD/svg11.dtd">
<svg xmlns="http://www.w3.org/2000/svg" xmlns:xlink="http://www.w3.org/1999/xlink" version="1.1" width="1280" height="720" viewBox="0 0 1280 720" xml:space="preserve">
<desc>Created with Fabric.js 4.2.0</desc>
<defs>
</defs>
<rect x="0" y="0" width="100%" height="100%" fill="transparent"></rect>
<g transform="matrix(0 0 0 0 0 0)" id="fc44904b-42b0-46bd-a528-2610bc01fc28"  >
</g>
<g transform="matrix(1 0 0 1 640 360)" id="c79c70f5-5bdd-486c-9e10-58708b818abe"  >
<rect style="stroke: none; stroke-width: 1; stroke-dasharray: none; stroke-linecap: butt; stroke-dashoffset: 0; stroke-linejoin: miter; stroke-miterlimit: 4; fill: rgb(255,255,255); fill-opacity: 0; fill-rule: nonzero; opacity: 1;" vector-effect="non-scaling-stroke"  x="-640" y="-360" rx="0" ry="0" width="1280" height="720" />
</g>
<g transform="matrix(12.25 0 0 12.25 640 360)"  >
<path style="stroke: none; stroke-width: 1; stroke-dasharray: none; stroke-linecap: butt; stroke-dashoffset: 0; stroke-linejoin: miter; stroke-miterlimit: 4; fill: rgb(10,129,171); fill-rule: nonzero; opacity: 1;" vector-effect="non-scaling-stroke"  transform=" translate(-67.39, -87.47)" d="M 40.7 87.15 Q 42.650000000000006 86.2 43.900000000000006 84 Q 45.150000000000006 81.9 45.150000000000006 79.5 Q 45.150000000000006 75.2 42.25000000000001 72.55 Q 39.35000000000001 69.95 34.95000000000001 69.95 L 20.90000000000001 69.95 L 20.300000000000008 69.95 L 17.750000000000007 69.95 L 17.750000000000007 105 L 20.300000000000008 105 L 20.90000000000001 105 L 34.95000000000001 105 Q 39.35000000000001 105 42.25000000000001 102.4 Q 45.150000000000006 99.75 45.150000000000006 95.45 Q 45.150000000000006 93.10000000000001 43.925000000000004 90.875 Q 42.7 88.64999999999999 40.7 87.15 z M 20.9 72.5 L 34.95 72.5 Q 37.95 72.5 39.900000000000006 74.55 Q 42.00000000000001 76.75 42.00000000000001 79.5 Q 42.00000000000001 81.75 40.35000000000001 83.65 Q 38.80000000000001 85.35000000000001 36.25000000000001 85.9 L 34.95000000000001 85.9 L 20.90000000000001 85.9 L 20.90000000000001 72.5 z M 34.95 102.45 L 20.900000000000002 102.45 L 20.900000000000002 89.05 L 34.95 89.05 L 36.25 89.05 Q 38.8 89.6 40.35 91.3 Q 42 93.2 42 95.45 Q 42 98.15 39.9 100.35000000000001 Q 37.9 102.45 34.949999999999996 102.45 z M 53.392 105 L 56.492000000000004 105 L 56.492000000000004 83.8 Q 56.492000000000004 79.6 59.69200000000001 76.3 Q 62.89200000000001 73.1 67.09200000000001 73.1 Q 71.29200000000002 73.1 74.59200000000001 76.3 Q 77.79200000000002 79.6 77.79200000000002 83.8 L 77.79200000000002 105 L 80.89200000000001 105 L 80.89200000000001 83.8 Q 80.89200000000001 78.1 76.84200000000001 74.05 Q 72.79200000000002 70 67.09200000000001 70 Q 61.49200000000001 70 57.442000000000014 74.05 Q 53.39200000000002 78.1 53.39200000000002 83.8 L 53.39200000000002 105 z M 112.584 87.15 Q 114.534 86.2 115.784 84 Q 117.034 81.9 117.034 79.5 Q 117.034 75.2 114.134 72.55 Q 111.234 69.95 106.834 69.95 L 92.784 69.95 L 92.18400000000001 69.95 L 89.63400000000001 69.95 L 89.63400000000001 105 L 92.18400000000001 105 L 92.784 105 L 106.834 105 Q 111.23400000000001 105 114.134 102.4 Q 117.034 99.75 117.034 95.45 Q 117.034 93.10000000000001 115.80900000000001 90.875 Q 114.58400000000002 88.64999999999999 112.58400000000002 87.15 z M 92.784 72.5 L 106.834 72.5 Q 109.834 72.5 111.784 74.55 Q 113.884 76.75 113.884 79.5 Q 113.884 81.75 112.234 83.65 Q 110.684 85.35000000000001 108.134 85.9 L 106.834 85.9 L 92.784 85.9 L 92.784 72.5 z M 106.834 102.45 L 92.784 102.45 L 92.784 89.05 L 106.834 89.05 L 108.134 89.05 Q 110.684 89.6 112.234 91.3 Q 113.884 93.2 113.884 95.45 Q 113.884 98.15 111.784 100.35000000000001 Q 109.784 102.45 106.834 102.45 z" stroke-linecap="round" />
</g>
<g transform="matrix(11.62 0 0 11.62 -153.28 -660.8)"  >
<path style="stroke: none; stroke-width: 1; stroke-dasharray: none; stroke-linecap: butt; stroke-dashoffset: 0; stroke-linejoin: miter; stroke-miterlimit: 4; fill: rgb(0,0,0); fill-rule: nonzero; opacity: 1;" vector-effect="non-scaling-stroke"  transform=" translate(0, 0)" d="" stroke-linecap="round" />
</g>
</svg>